<svg width="456" height="291" viewBox="0 0 456 291" fill="none" xmlns="http://www.w3.org/2000/svg">
    <path d="M65.5879 255.386C66.0126 206.137 66.4161 156.909 66.8409 107.66C75.9728 107.66 84.3615 107.618 93.4935 107.596L158.161 107.384C165.806 107.511 173.472 107.66 181.118 107.788C181.543 107.788 181.989 107.788 182.371 108.021C183.135 108.446 183.348 109.444 183.348 110.294C183.794 165.807 183.199 205.096 182.604 255.768" fill="#EEEEEE"/>
    <path d="M65.5879 255.386C66.0126 206.137 66.4161 156.909 66.8409 107.66C75.9728 107.66 84.3615 107.618 93.4935 107.596L158.161 107.384C165.806 107.511 173.472 107.66 181.118 107.788C181.543 107.788 181.989 107.788 182.371 108.021C183.135 108.446 183.348 109.444 183.348 110.294C183.794 165.807 183.199 205.096 182.604 255.768" stroke="#999999" stroke-width="3.27052" stroke-linecap="round" stroke-linejoin="round"/>
    <path d="M97.039 93.9198H151.767C153.997 93.9198 155.802 95.725 155.802 97.9549V254.664C155.802 254.664 155.802 254.685 155.781 254.685H93.0251C93.0251 254.685 93.0039 254.685 93.0039 254.664V97.9549C93.0039 95.725 94.8091 93.9198 97.039 93.9198Z" fill="white" stroke="#999999" stroke-width="3.27052" stroke-linecap="round" stroke-linejoin="round"/>
    <path d="M262.031 255.385C262.456 206.137 262.859 156.909 263.284 107.66C272.416 107.66 280.805 107.618 289.937 107.596L354.604 107.384C362.249 107.511 369.916 107.66 377.561 107.787C377.986 107.787 378.432 107.787 378.814 108.021C379.579 108.446 379.791 109.444 379.791 110.293C380.237 165.807 379.642 205.096 379.048 255.768" fill="#EEEEEE"/>
    <path d="M262.031 255.385C262.456 206.137 262.859 156.909 263.284 107.66C272.416 107.66 280.805 107.618 289.937 107.596L354.604 107.384C362.249 107.511 369.916 107.66 377.561 107.787C377.986 107.787 378.432 107.787 378.814 108.021C379.579 108.446 379.791 109.444 379.791 110.293C380.237 165.807 379.642 205.096 379.048 255.768" stroke="#999999" stroke-width="3.27052" stroke-linecap="round" stroke-linejoin="round"/>
    <path d="M119.041 131.509H106.83V144.804H119.041V131.509Z" stroke="#999999" stroke-width="3.27052" stroke-linecap="round" stroke-linejoin="round"/>
    <path d="M143.91 131.509H131.698V144.804H143.91V131.509Z" stroke="#999999" stroke-width="3.27052" stroke-linecap="round" stroke-linejoin="round"/>
    <path d="M119.041 150.134H106.83V163.428H119.041V150.134Z" stroke="#999999" stroke-width="3.27052" stroke-linecap="round" stroke-linejoin="round"/>
    <path d="M143.91 150.134H131.698V163.428H143.91V150.134Z" stroke="#999999" stroke-width="3.27052" stroke-linecap="round" stroke-linejoin="round"/>
    <path d="M119.041 168.78H106.83V182.075H119.041V168.78Z" stroke="#999999" stroke-width="3.27052" stroke-linecap="round" stroke-linejoin="round"/>
    <path d="M143.91 168.78H131.698V182.075H143.91V168.78Z" stroke="#999999" stroke-width="3.27052" stroke-linecap="round" stroke-linejoin="round"/>
    <path d="M119.041 187.426H106.83V200.721H119.041V187.426Z" stroke="#999999" stroke-width="3.27052" stroke-linecap="round" stroke-linejoin="round"/>
    <path d="M143.91 187.426H131.698V200.721H143.91V187.426Z" stroke="#999999" stroke-width="3.27052" stroke-linecap="round" stroke-linejoin="round"/>
    <path d="M119.041 206.051H106.83V219.346H119.041V206.051Z" stroke="#999999" stroke-width="3.27052" stroke-linecap="round" stroke-linejoin="round"/>
    <path d="M143.91 206.051H131.698V219.346H143.91V206.051Z" stroke="#999999" stroke-width="3.27052" stroke-linecap="round" stroke-linejoin="round"/>
    <path d="M119.041 224.698H106.83V237.992H119.041V224.698Z" stroke="#999999" stroke-width="3.27052" stroke-linecap="round" stroke-linejoin="round"/>
    <path d="M143.91 224.698H131.698V237.992H143.91V224.698Z" stroke="#999999" stroke-width="3.27052" stroke-linecap="round" stroke-linejoin="round"/>
    <path d="M67.415 135.396L91.8377 135.183" stroke="#999999" stroke-width="3.27052" stroke-linecap="round" stroke-linejoin="round"/>
    <path d="M67.6484 161.242L92.0711 161.029" stroke="#999999" stroke-width="3.27052" stroke-linecap="round" stroke-linejoin="round"/>
    <path d="M67.8809 187.108L92.3036 186.896" stroke="#999999" stroke-width="3.27052" stroke-linecap="round" stroke-linejoin="round"/>
    <path d="M67.4355 212.954L91.837 212.742" stroke="#999999" stroke-width="3.27052" stroke-linecap="round" stroke-linejoin="round"/>
    <path d="M67.1172 238.821L91.5399 238.587" stroke="#999999" stroke-width="3.27052" stroke-linecap="round" stroke-linejoin="round"/>
    <path d="M157.311 135.396L181.712 135.183" stroke="#999999" stroke-width="3.27052" stroke-linecap="round" stroke-linejoin="round"/>
    <path d="M157.544 161.241L181.945 161.029" stroke="#999999" stroke-width="3.27052" stroke-linecap="round" stroke-linejoin="round"/>
    <path d="M157.756 187.108L182.179 186.896" stroke="#999999" stroke-width="3.27052" stroke-linecap="round" stroke-linejoin="round"/>
    <path d="M157.586 212.954L181.987 212.741" stroke="#999999" stroke-width="3.27052" stroke-linecap="round" stroke-linejoin="round"/>
    <path d="M157.141 238.82L181.542 238.587" stroke="#999999" stroke-width="3.27052" stroke-linecap="round" stroke-linejoin="round"/>
    <path d="M263.625 135.396L288.048 135.183" stroke="#999999" stroke-width="3.27052" stroke-linecap="round" stroke-linejoin="round"/>
    <path d="M263.857 161.242L288.28 161.029" stroke="#999999" stroke-width="3.27052" stroke-linecap="round" stroke-linejoin="round"/>
    <path d="M264.093 187.108L288.515 186.896" stroke="#999999" stroke-width="3.27052" stroke-linecap="round" stroke-linejoin="round"/>
    <path d="M264.326 212.954L288.728 212.742" stroke="#999999" stroke-width="3.27052" stroke-linecap="round" stroke-linejoin="round"/>
    <path d="M264.538 238.821L288.961 238.587" stroke="#999999" stroke-width="3.27052" stroke-linecap="round" stroke-linejoin="round"/>
    <path d="M354.2 135.396L378.602 135.183" stroke="#999999" stroke-width="3.27052" stroke-linecap="round" stroke-linejoin="round"/>
    <path d="M354.412 161.241L378.835 161.029" stroke="#999999" stroke-width="3.27052" stroke-linecap="round" stroke-linejoin="round"/>
    <path d="M354.646 187.108L379.068 186.896" stroke="#999999" stroke-width="3.27052" stroke-linecap="round" stroke-linejoin="round"/>
    <path d="M354.072 212.954L378.474 212.741" stroke="#999999" stroke-width="3.27052" stroke-linecap="round" stroke-linejoin="round"/>
    <path d="M353.754 238.82L378.155 238.587" stroke="#999999" stroke-width="3.27052" stroke-linecap="round" stroke-linejoin="round"/>
    <path d="M46.3467 287.05V264.305C46.3467 259.59 50.1906 255.746 54.9052 255.746H392.002C396.717 255.746 400.561 259.59 400.561 264.305V287.05" stroke="#999999" stroke-width="3.27052" stroke-linecap="round" stroke-linejoin="round"/>
    <path d="M196.686 289.301V237.929C196.686 223.445 208.536 211.595 223.02 211.595C237.503 211.595 249.354 223.445 249.354 237.929V289.301" fill="white"/>
    <path d="M196.686 289.301V237.929C196.686 223.445 208.536 211.595 223.02 211.595C237.503 211.595 249.354 223.445 249.354 237.929V289.301" stroke="#999999" stroke-width="3.27052" stroke-linecap="round" stroke-linejoin="round"/>
    <path d="M2.11035 289.301C152.682 289.45 303.274 289.152 453.845 289.301H2.11035Z" fill="white"/>
    <path d="M2.11035 289.301C152.682 289.45 303.274 289.152 453.845 289.301" stroke="#999999" stroke-width="3.27052" stroke-linecap="round" stroke-linejoin="round"/>
    <path d="M198.064 239.543H247.462" stroke="#999999" stroke-width="3.27052" stroke-linecap="round" stroke-linejoin="round"/>
    <path d="M223.401 241.284V287.539" stroke="#999999" stroke-width="3.27052" stroke-linecap="round" stroke-linejoin="round"/>
    <path d="M210.871 240.137V287.539" stroke="#999999" stroke-width="3.27052" stroke-linecap="round" stroke-linejoin="round"/>
    <path d="M236.164 240.137V287.538" stroke="#999999" stroke-width="3.27052" stroke-linecap="round" stroke-linejoin="round"/>
    <path d="M247.185 251.181H197.512" stroke="#999999" stroke-width="3.27052" stroke-linecap="round" stroke-linejoin="round"/>
    <path d="M247.185 263.286H197.512" stroke="#999999" stroke-width="3.27052" stroke-linecap="round" stroke-linejoin="round"/>
    <path d="M247.185 276.495H197.512" stroke="#999999" stroke-width="3.27052" stroke-linecap="round" stroke-linejoin="round"/>
    <path d="M79.2014 266.344H67.2236V275.773H79.2014V266.344Z" stroke="#999999" stroke-width="3.27052" stroke-linecap="round" stroke-linejoin="round"/>
    <path d="M103.496 266.344H91.5186V275.773H103.496V266.344Z" stroke="#999999" stroke-width="3.27052" stroke-linecap="round" stroke-linejoin="round"/>
    <path d="M127.791 266.344H115.813V275.773H127.791V266.344Z" stroke="#999999" stroke-width="3.27052" stroke-linecap="round" stroke-linejoin="round"/>
    <path d="M152.109 266.344H140.131V275.773H152.109V266.344Z" stroke="#999999" stroke-width="3.27052" stroke-linecap="round" stroke-linejoin="round"/>
    <path d="M176.404 266.344H164.426V275.773H176.404V266.344Z" stroke="#999999" stroke-width="3.27052" stroke-linecap="round" stroke-linejoin="round"/>
    <path d="M281.613 266.344H269.635V275.773H281.613V266.344Z" stroke="#999999" stroke-width="3.27052" stroke-linecap="round" stroke-linejoin="round"/>
    <path d="M305.928 266.344H293.95V275.773H305.928V266.344Z" stroke="#999999" stroke-width="3.27052" stroke-linecap="round" stroke-linejoin="round"/>
    <path d="M330.224 266.344H318.246V275.773H330.224V266.344Z" stroke="#999999" stroke-width="3.27052" stroke-linecap="round" stroke-linejoin="round"/>
    <path d="M354.518 266.344H342.54V275.773H354.518V266.344Z" stroke="#999999" stroke-width="3.27052" stroke-linecap="round" stroke-linejoin="round"/>
    <path d="M378.835 266.344H366.857V275.773H378.835V266.344Z" stroke="#999999" stroke-width="3.27052" stroke-linecap="round" stroke-linejoin="round"/>
    <path d="M218.348 223.19C218.008 223.954 218.008 224.867 218.348 225.632" stroke="#999999" stroke-width="3.27052" stroke-linecap="round" stroke-linejoin="round"/>
    <path d="M227.436 223.19C227.097 223.954 227.097 224.867 227.436 225.632" stroke="#999999" stroke-width="3.27052" stroke-linecap="round" stroke-linejoin="round"/>
    <path d="M215.183 228.924C218.517 233.171 226.99 233.171 230.325 228.924" stroke="#999999" stroke-width="3.27052" stroke-linecap="round" stroke-linejoin="round"/>
    <path d="M203.565 199.298C204.946 201.358 206.305 203.44 207.685 205.5" stroke="#999999" stroke-width="3.27052" stroke-linecap="round" stroke-linejoin="round"/>
    <path d="M214.757 196.538C214.608 198.492 214.757 200.488 215.203 202.399" stroke="#999999" stroke-width="3.27052" stroke-linecap="round" stroke-linejoin="round"/>
    <path d="M293.888 93.9196H348.616C350.846 93.9196 352.651 95.7247 352.651 97.9546V254.663C352.651 254.663 352.651 254.685 352.63 254.685H289.874C289.874 254.685 289.853 254.685 289.853 254.663V97.9546C289.853 95.7247 291.658 93.9196 293.888 93.9196Z" fill="white" stroke="#999999" stroke-width="3.27052" stroke-linecap="round" stroke-linejoin="round"/>
    <path d="M315.761 131.509H303.55V144.804H315.761V131.509Z" stroke="#999999" stroke-width="3.27052" stroke-linecap="round" stroke-linejoin="round"/>
    <path d="M340.609 131.509H328.397V144.804H340.609V131.509Z" stroke="#999999" stroke-width="3.27052" stroke-linecap="round" stroke-linejoin="round"/>
    <path d="M315.761 150.134H303.55V163.429H315.761V150.134Z" stroke="#999999" stroke-width="3.27052" stroke-linecap="round" stroke-linejoin="round"/>
    <path d="M340.609 150.134H328.397V163.429H340.609V150.134Z" stroke="#999999" stroke-width="3.27052" stroke-linecap="round" stroke-linejoin="round"/>
    <path d="M315.761 168.781H303.55V182.075H315.761V168.781Z" stroke="#999999" stroke-width="3.27052" stroke-linecap="round" stroke-linejoin="round"/>
    <path d="M340.609 168.781H328.397V182.075H340.609V168.781Z" stroke="#999999" stroke-width="3.27052" stroke-linecap="round" stroke-linejoin="round"/>
    <path d="M315.761 187.427H303.55V200.721H315.761V187.427Z" stroke="#999999" stroke-width="3.27052" stroke-linecap="round" stroke-linejoin="round"/>
    <path d="M340.609 187.427H328.397V200.721H340.609V187.427Z" stroke="#999999" stroke-width="3.27052" stroke-linecap="round" stroke-linejoin="round"/>
    <path d="M315.761 206.051H303.55V219.346H315.761V206.051Z" stroke="#999999" stroke-width="3.27052" stroke-linecap="round" stroke-linejoin="round"/>
    <path d="M340.609 206.051H328.397V219.346H340.609V206.051Z" stroke="#999999" stroke-width="3.27052" stroke-linecap="round" stroke-linejoin="round"/>
    <path d="M315.761 224.698H303.55V237.992H315.761V224.698Z" stroke="#999999" stroke-width="3.27052" stroke-linecap="round" stroke-linejoin="round"/>
    <path d="M340.609 224.698H328.397V237.992H340.609V224.698Z" stroke="#999999" stroke-width="3.27052" stroke-linecap="round" stroke-linejoin="round"/>
    <path d="M221.214 136.309C226.629 108.849 234.211 85.743 251.732 68.4348C262.605 57.6888 276.537 48.4931 291.827 49.0028C297.922 49.1939 304.548 51.4026 307.458 56.7543C310.367 62.1061 306.778 70.516 300.704 70.155C293.76 69.7727 291.806 59.855 294.652 53.5051C301.129 39.0001 318.82 33.9457 334.344 30.569" stroke="#999999" stroke-width="3.27052" stroke-linecap="round" stroke-linejoin="round"/>
    <path d="M319.647 21.3096C325.912 24.3465 332.177 27.3834 338.421 30.3991C332.517 35.9632 327.335 42.2919 323.067 49.1939" stroke="#999999" stroke-width="3.27052" stroke-linecap="round" stroke-linejoin="round"/>
    <path d="M359.576 3.74314H363.551V21.0726H359.576V3.74314ZM368.319 6.46999H366.357V2.21407H370.664V5.98578L368.752 10.0123H366.662L368.319 6.46999ZM390.467 13.5802C390.467 12.6627 390.28 11.9746 389.907 11.5159C389.533 11.0402 388.913 10.8024 388.046 10.8024C387.333 10.8024 386.772 11.0147 386.364 11.4395C385.974 11.8642 385.71 12.3399 385.574 12.8666V21.0726H381.675V13.5802C381.675 12.6627 381.488 11.9746 381.115 11.5159C380.741 11.0402 380.121 10.8024 379.254 10.8024C378.541 10.8024 377.98 11.0147 377.572 11.4395C377.181 11.8642 376.918 12.3399 376.782 12.8666V21.0726H372.883V7.71873H376.782V9.45168C377.139 8.85704 377.64 8.36434 378.286 7.97357C378.931 7.58281 379.755 7.38743 380.758 7.38743C381.828 7.38743 382.703 7.6083 383.383 8.05003C384.062 8.47477 384.572 9.06091 384.912 9.80846C385.421 8.99296 386.033 8.38982 386.747 7.99906C387.477 7.59131 388.412 7.38743 389.55 7.38743C390.416 7.38743 391.155 7.54034 391.767 7.84615C392.379 8.13498 392.871 8.54273 393.245 9.06941C393.636 9.5791 393.916 10.1907 394.086 10.9043C394.273 11.6009 394.367 12.3569 394.367 13.1724V21.0726H390.467V13.5802Z" fill="#999999"/>
    <path d="M353.345 21.0301H357.244V27.5032C357.601 26.9086 358.119 26.4159 358.799 26.0251C359.495 25.6343 360.345 25.4389 361.347 25.4389C362.214 25.4389 362.961 25.5919 363.59 25.8977C364.218 26.1865 364.728 26.5942 365.119 27.1209C365.527 27.6306 365.824 28.2422 366.011 28.9558C366.198 29.6524 366.291 30.4084 366.291 31.2239V39.1241H362.392V31.6317C362.392 29.7798 361.542 28.8539 359.843 28.8539C359.13 28.8539 358.552 29.0662 358.111 29.491C357.669 29.9157 357.38 30.3914 357.244 30.9181V39.1241H353.345V21.0301ZM375.449 39.4809C374.328 39.4809 373.317 39.3025 372.416 38.9458C371.533 38.572 370.777 38.0708 370.148 37.4422C369.52 36.7966 369.035 36.049 368.696 35.1995C368.373 34.35 368.211 33.4496 368.211 32.4982C368.211 31.4448 368.381 30.4849 368.721 29.6184C369.061 28.7519 369.537 28.0129 370.148 27.4013C370.76 26.7726 371.482 26.2884 372.314 25.9486C373.147 25.6088 374.056 25.4389 375.041 25.4389C376.027 25.4389 376.91 25.6003 377.692 25.9232C378.49 26.229 379.17 26.6707 379.73 27.2483C380.291 27.809 380.716 28.4886 381.005 29.2871C381.31 30.0856 381.463 30.9691 381.463 31.9375C381.463 32.1754 381.446 32.4557 381.412 32.7785C381.395 33.1013 381.37 33.3561 381.336 33.543H372.06C372.212 34.3076 372.569 34.9362 373.13 35.4289C373.691 35.9216 374.532 36.1679 375.653 36.1679C376.417 36.1679 377.088 35.9895 377.666 35.6328C378.261 35.259 378.728 34.8597 379.068 34.435L381.132 37.0089C380.537 37.6715 379.756 38.2492 378.787 38.7419C377.836 39.2346 376.723 39.4809 375.449 39.4809ZM375.041 28.5735C374.328 28.5735 373.725 28.7519 373.232 29.1087C372.756 29.4655 372.408 30.0007 372.187 30.7142H377.692C377.607 30.0007 377.335 29.4655 376.876 29.1087C376.417 28.7519 375.806 28.5735 375.041 28.5735ZM383.533 25.7702H387.432V27.6816C387.823 26.968 388.316 26.4159 388.91 26.0251C389.505 25.6343 390.202 25.4389 391 25.4389H391.459V29.1087C391 29.1087 390.558 29.1427 390.134 29.2107C389.726 29.2616 389.344 29.3721 388.987 29.542C388.63 29.7119 388.316 29.9497 388.044 30.2555C387.789 30.5613 387.585 30.9606 387.432 31.4533V39.1241H383.533V25.7702ZM399.59 39.4809C398.468 39.4809 397.457 39.3025 396.557 38.9458C395.673 38.572 394.917 38.0708 394.289 37.4422C393.66 36.7966 393.176 36.049 392.836 35.1995C392.513 34.35 392.352 33.4496 392.352 32.4982C392.352 31.4448 392.522 30.4849 392.862 29.6184C393.201 28.7519 393.677 28.0129 394.289 27.4013C394.9 26.7726 395.623 26.2884 396.455 25.9486C397.288 25.6088 398.196 25.4389 399.182 25.4389C400.167 25.4389 401.051 25.6003 401.832 25.9232C402.631 26.229 403.31 26.6707 403.871 27.2483C404.432 27.809 404.856 28.4886 405.145 29.2871C405.451 30.0856 405.604 30.9691 405.604 31.9375C405.604 32.1754 405.587 32.4557 405.553 32.7785C405.536 33.1013 405.511 33.3561 405.477 33.543H396.2C396.353 34.3076 396.71 34.9362 397.271 35.4289C397.831 35.9216 398.672 36.1679 399.793 36.1679C400.558 36.1679 401.229 35.9895 401.807 35.6328C402.401 35.259 402.869 34.8597 403.208 34.435L405.273 37.0089C404.678 37.6715 403.897 38.2492 402.928 38.7419C401.977 39.2346 400.864 39.4809 399.59 39.4809ZM399.182 28.5735C398.468 28.5735 397.865 28.7519 397.372 29.1087C396.897 29.4655 396.548 30.0007 396.328 30.7142H401.832C401.747 30.0007 401.475 29.4655 401.017 29.1087C400.558 28.7519 399.946 28.5735 399.182 28.5735Z" fill="#999999"/>
</svg>
